HIERARCHY
ROOT Hips
{
 OFFSET 0.000000 0.000000 0.000000
 CHANNELS 6 Xposition Yposition Zposition Yrotation Xrotation Zrotation
 JOINT Chest
 {
  OFFSET 0.000000 9.585900 0.002600
  CHANNELS 3 Yrotation Xrotation Zrotation
  JOINT Chest2
  {
   OFFSET 0.000000 9.601200 -0.005300
   CHANNELS 3 Yrotation Xrotation Zrotation
   JOINT Chest3
   {
    OFFSET 0.000000 9.561800 0.000000
    CHANNELS 3 Yrotation Xrotation Zrotation
    JOINT Chest4
    {
     OFFSET 0.000000 9.552100 0.000000
     CHANNELS 3 Yrotation Xrotation Zrotation
     JOINT Neck
     {
      OFFSET 0.000000 14.453000 0.000000
      CHANNELS 3 Yrotation Xrotation Zrotation
      JOINT Head
      {
       OFFSET 0.000000 8.936500 -0.011300
       CHANNELS 3 Yrotation Xrotation Zrotation
       End Site
       {
        OFFSET 0.000000 17.073600 -0.006000
       }
      }
     }
     JOINT RightCollar
     {
      OFFSET -2.921100 9.558500 0.000000
      CHANNELS 3 Yrotation Xrotation Zrotation
      JOINT RightShoulder
      {
       OFFSET -13.519700 0.000000 0.000000
       CHANNELS 3 Yrotation Xrotation Zrotation
       JOINT RightElbow
       {
        OFFSET 0.000000 -29.696600 0.000000
        CHANNELS 3 Yrotation Xrotation Zrotation
        JOINT RightWrist
        {
         OFFSET 0.000000 -24.004700 0.000000
         CHANNELS 3 Yrotation Xrotation Zrotation
         End Site
         {
          OFFSET 0.000000 -17.728500 0.000000
         }
        }
       }
      }
     }
     JOINT LeftCollar
     {
      OFFSET 2.921100 9.558500 0.000000
      CHANNELS 3 Yrotation Xrotation Zrotation
      JOINT LeftShoulder
      {
       OFFSET 13.519700 0.000000 0.000000
       CHANNELS 3 Yrotation Xrotation Zrotation
       JOINT LeftElbow
       {
        OFFSET 0.000000 -29.696600 0.000000
        CHANNELS 3 Yrotation Xrotation Zrotation
        JOINT LeftWrist
        {
         OFFSET 0.000000 -24.004700 0.000000
         CHANNELS 3 Yrotation Xrotation Zrotation
         End Site
         {
          OFFSET 0.000000 -17.728500 0.000000
         }
        }
       }
      }
     }
    }
   }
  }
 }
 JOINT RightHip
 {
  OFFSET -7.771700 -0.012900 -0.001300
  CHANNELS 3 Yrotation Xrotation Zrotation
  JOINT RightKnee
  {
   OFFSET 0.000000 -40.869800 0.001200
   CHANNELS 3 Yrotation Xrotation Zrotation
   JOINT RightAnkle
   {
    OFFSET 0.000000 -39.717900 0.002100
    CHANNELS 3 Yrotation Xrotation Zrotation
    JOINT RightToe
    {
     OFFSET 0.000000 -4.965400 11.033500
     CHANNELS 3 Yrotation Xrotation Zrotation
     End Site
     {
      OFFSET 0.000000 -1.423100 5.872300
     }
    }
   }
  }
 }
 JOINT LeftHip
 {
  OFFSET 7.771700 -0.012900 -0.001300
  CHANNELS 3 Yrotation Xrotation Zrotation
  JOINT LeftKnee
  {
   OFFSET 0.000000 -40.869800 0.001200
   CHANNELS 3 Yrotation Xrotation Zrotation
   JOINT LeftAnkle
   {
    OFFSET 0.000000 -39.717900 0.002100
    CHANNELS 3 Yrotation Xrotation Zrotation
    JOINT LeftToe
    {
     OFFSET 0.000000 -4.965400 11.033500
     CHANNELS 3 Yrotation Xrotation Zrotation
     End Site
     {
      OFFSET 0.000000 -1.423100 5.872300
     }
    }
   }
  }
 }
}
MOTION
Frames: 11
Frame Time: 0.008333
-18.254058 57.347158 31.796352 170.135979 -44.348407 -0.493498 5.410718 22.842707 4.347020 0.666202 3.422786 0.334548 1.070740 5.510533 0.552410 4.267024 19.250554 2.524336 -3.042429 22.457269 0.655283 -5.665312 5.990847 1.994886 10.091674 2.513895 -9.668908 43.270005 -43.976654 -18.655864 44.554522 6.233223 3.734135 7.619521 -1.840176 -52.461263 -19.832655 -4.910650 7.244857 -36.749712 -38.554257 9.462525 -56.365814 5.178498 5.752271 -18.152326 -3.076460 47.694140 14.497415 -31.546341 3.028331 -12.644470 68.825347 -8.475308 0.147670 16.146970 1.508583 -0.923969 -10.269792 4.564027 -7.549744 -34.428882 1.095961 32.950818 71.822126 27.824926 -18.658258 22.508566 1.041283 0.243153 -14.722509 -3.179477
-18.260568 57.335753 31.826452 170.145936 -44.410068 -0.526552 5.427911 22.884963 4.387222 0.685438 3.411857 0.343106 1.083996 5.522964 0.552063 4.267039 19.278166 2.555842 -2.955367 22.479856 0.719893 -5.524908 6.032511 2.087186 9.912529 2.433151 -9.708058 43.079130 -44.045893 -18.408757 44.484562 6.197608 3.659956 7.674019 -1.960488 -52.450134 -19.740645 -5.005163 7.263787 -36.769245 -38.551264 9.371242 -56.321102 5.126634 5.864456 -18.214345 -3.100586 47.717125 14.543458 -31.515045 3.031158 -12.672775 68.805072 -8.458849 0.153099 16.210827 1.533147 -0.931120 -10.293048 4.562886 -7.566816 -34.391245 1.123995 32.929511 71.828545 27.815577 -18.668059 22.546009 1.027193 0.264565 -14.730737 -3.186959
-18.258253 57.323204 31.858939 170.188321 -44.451715 -0.624889 5.433956 22.905427 4.470946 0.687557 3.417544 0.345831 1.095542 5.528049 0.562112 4.283631 19.299392 2.582037 -2.869796 22.502485 0.781875 -5.386553 6.074013 2.175372 9.744945 2.358668 -9.751037 43.088015 -44.076295 -18.308614 44.350928 6.177554 3.595967 7.718900 -2.085593 -52.459406 -19.645684 -5.100128 7.281900 -36.862306 -38.563027 9.320176 -56.262788 5.102889 5.967445 -18.265080 -3.133537 47.734959 14.554518 -31.517485 3.073934 -12.716638 68.791250 -8.447199 0.201499 16.266661 1.580033 -0.977320 -10.313477 4.548926 -7.600680 -34.387260 1.191855 32.843161 71.846607 27.771188 -18.628497 22.674808 1.014501 0.243080 -14.822501 -3.179908
-18.271938 57.317765 31.880303 170.195488 -44.545973 -0.581634 5.443148 22.947422 4.456518 0.663953 3.463795 0.336480 1.141332 5.522819 0.595021 4.240209 19.321946 2.568788 -2.759832 22.531847 0.854261 -5.258198 6.124738 2.261865 9.606738 2.299383 -9.780983 43.161515 -44.107019 -18.260561 44.227867 6.177489 3.544276 7.756819 -2.216390 -52.480578 -19.541621 -5.176852 7.313689 -36.934841 -38.589981 9.256622 -56.212078 5.100249 6.060546 -18.306670 -3.174055 47.764465 14.621138 -31.436814 3.015944 -12.753432 68.784991 -8.449535 0.150068 16.339896 1.538038 -0.931972 -10.357884 4.591159 -7.554398 -34.315478 1.118067 32.756599 71.830498 27.704508 -18.689127 22.764462 0.960740 0.299820 -14.874442 -3.171508
-18.276283 57.308247 31.906630 170.182316 -44.596544 -0.574991 5.461259 22.988003 4.469050 0.703945 3.410041 0.363217 1.118602 5.564558 0.589083 4.237658 19.347793 2.574201 -2.664389 22.555530 0.922441 -5.134610 6.182318 2.339382 9.474805 2.248446 -9.812243 43.181972 -44.158299 -18.177666 44.170483 6.190871 3.495079 7.795301 -2.349297 -52.497630 -19.453841 -5.246970 7.352254 -36.929994 -38.625952 9.145305 -56.196859 5.109033 6.144656 -18.340699 -3.217689 47.806670 14.668484 -31.409736 3.017303 -12.769002 68.764521 -8.452999 0.139658 16.403260 1.552019 -0.926486 -10.381401 4.600153 -7.534039 -34.280052 1.114968 32.710239 71.811932 27.671064 -18.707108 22.840023 0.943487 0.304752 -14.922405 -3.172961
-18.269025 57.301378 31.931122 170.178407 -44.662202 -0.635814 5.513249 23.002070 4.563729 0.689459 3.434776 0.359107 1.120055 5.570755 0.592197 4.277831 19.354560 2.604348 -2.620985 22.575972 0.978174 -5.010579 6.236148 2.395134 9.326382 2.208134 -9.851258 43.112179 -44.220431 -18.027866 44.175944 6.201527 3.435887 7.847774 -2.473452 -52.502392 -19.396447 -5.311218 7.390093 -36.848956 -38.663140 8.980888 -56.237434 5.115787 6.229345 -18.374078 -3.257096 47.846040 14.665411 -31.375172 3.103741 -12.770030 68.730176 -8.454474 0.174102 16.468721 1.612086 -0.959626 -10.404191 4.580737 -7.549731 -34.227791 1.179194 32.701513 71.800805 27.679974 -18.681896 22.939166 0.953877 0.253390 -15.004082 -3.174779
-18.273327 57.292275 31.954223 170.264534 -44.704172 -0.689682 5.450236 22.996327 4.570564 0.688015 3.463078 0.356123 1.120400 5.576638 0.595143 4.259328 19.328247 2.674641 -2.584737 22.620069 0.945595 -4.877651 6.280703 2.436031 9.240161 2.212896 -9.943428 42.979558 -44.300638 -17.835689 44.214383 6.208459 3.384387 7.926384 -2.575949 -52.498238 -19.273958 -5.361034 7.369940 -36.744246 -38.698164 8.794290 -56.321155 5.116474 6.320190 -18.407559 -3.286840 47.871852 14.642339 -31.344355 3.094093 -12.813514 68.717100 -8.480168 0.163946 16.503201 1.614831 -0.946437 -10.416180 4.589741 -7.552099 -34.227587 1.143281 32.726133 71.773744 27.745615 -18.723559 23.110526 0.925020 0.296651 -15.132066 -3.175216
-18.276106 57.287517 31.971460 170.288782 -44.780857 -0.707459 5.425454 23.023605 4.590710 0.684919 3.469067 0.359873 1.115580 5.585534 0.600834 4.234038 19.325790 2.700659 -2.567457 22.659300 0.898312 -4.735250 6.314452 2.478459 9.195745 2.226077 -10.007366 42.797438 -44.389595 -17.634677 44.261641 6.204941 3.337552 8.029901 -2.662100 -52.496660 -19.135217 -5.402042 7.385810 -36.663079 -38.732970 8.620345 -56.424648 5.117577 6.405827 -18.433820 -3.311899 47.891571 14.655187 -31.285481 3.099418 -12.862078 68.706041 -8.506995 0.160824 16.558694 1.613855 -0.938444 -10.447919 4.602351 -7.529957 -34.172957 1.113362 32.723805 71.766338 27.768946 -18.696222 23.191684 0.942231 0.295123 -15.215680 -3.191628
-18.280421 57.279500 31.989952 170.270591 -44.829496 -0.696635 5.390476 22.959986 4.622643 0.678093 3.472803 0.368401 1.110017 5.606067 0.605263 4.228357 19.364435 2.699004 -2.516386 22.703041 0.903135 -4.670730 6.338322 2.456120 9.194803 2.283538 -10.065152 42.570183 -44.477982 -17.446409 44.308298 6.190681 3.290279 8.150258 -2.751668 -52.518724 -18.997048 -5.424047 7.406268 -36.611165 -38.773640 8.463932 -56.539141 5.129574 6.467075 -18.454862 -3.340186 47.917355 14.702176 -31.247009 3.101626 -13.010187 68.667314 -8.645525 0.226976 16.604409 1.658922 -0.961176 -10.456336 4.596554 -7.496675 -34.136700 1.098219 32.704144 71.748556 27.758889 -18.668261 23.264943 0.956746 0.266309 -15.264800 -3.195898
-18.295839 57.272418 32.003536 170.278584 -44.887350 -0.646579 5.336424 22.961803 4.582702 0.674863 3.470899 0.372593 1.099624 5.588552 0.621066 4.216612 19.375542 2.712413 -2.459425 22.701195 0.938919 -4.662477 6.396426 2.379759 9.141455 2.323355 -10.131128 42.387036 -44.540448 -17.232802 44.356839 6.166744 3.246479 8.283331 -2.853906 -52.581557 -18.860789 -5.429998 7.433630 -36.585353 -38.827633 8.313283 -56.674495 5.163612 6.497682 -18.475198 -3.372157 47.941750 14.762911 -31.190620 3.025985 -13.045575 68.660488 -8.652066 0.178310 16.651240 1.626352 -0.922490 -10.480739 4.625681 -7.441745 -34.097847 1.012051 32.677425 71.727646 27.740540 -18.683938 23.331364 0.935400 0.311069 -15.315024 -3.191489
-18.299290 57.265246 32.017639 170.295856 -44.945270 -0.688722 5.307469 22.952928 4.633285 0.671250 3.466644 0.376511 1.094031 5.582002 0.627399 4.220097 19.414661 2.707320 -2.445388 22.658586 0.963727 -4.653281 6.442403 2.314517 9.087642 2.323112 -10.169288 42.268253 -44.575377 -17.071939 44.387676 6.127192 3.209270 8.429577 -2.967111 -52.688336 -18.737677 -5.461806 7.516255 -36.578599 -38.882184 8.144447 -56.843337 5.221869 6.522027 -18.488918 -3.397796 47.947653 14.756226 -31.157636 3.050954 -13.064496 68.655595 -8.650965 0.217736 16.696660 1.649839 -0.954600 -10.506561 4.621956 -7.439987 -34.054967 1.016197 32.674454 71.717821 27.757352 -18.616230 23.412006 0.968991 0.248235 -15.392016 -3.197595
